<svg width="148" height="81" viewBox="0 0 148 81" fill="none" xmlns="http://www.w3.org/2000/svg">
<path d="M2.1718 46.3515H7.78487L13.7133 60.8152H13.9655L19.894 46.3515H25.507V67.8788H21.0923V53.8671H20.9136L15.3425 67.7737H12.3363L6.76526 53.8146H6.58657V67.8788H2.1718V46.3515ZM31.9374 73.9333C31.3697 73.9333 30.8372 73.8878 30.3396 73.7967C29.8491 73.7126 29.4427 73.604 29.1203 73.4708L30.1294 70.1282C30.655 70.2894 31.128 70.377 31.5484 70.391C31.9759 70.405 32.3438 70.3069 32.6521 70.0967C32.9675 69.8865 33.2232 69.5291 33.4195 69.0245L33.6822 68.3413L27.8905 51.7333H32.5996L35.9422 63.5902H36.1104L39.4845 51.7333H44.2251L37.9499 69.6237C37.6485 70.4926 37.2386 71.2494 36.72 71.8941C36.2085 72.5458 35.5603 73.0469 34.7754 73.3973C33.9906 73.7546 33.0445 73.9333 31.9374 73.9333ZM46.6007 67.8788V46.3515H55.22C56.8037 46.3515 58.1247 46.5863 59.1828 47.0558C60.241 47.5253 61.0363 48.177 61.5689 49.0109C62.1015 49.8378 62.3678 50.7908 62.3678 51.87C62.3678 52.7109 62.1996 53.4502 61.8632 54.0879C61.5268 54.7186 61.0643 55.2371 60.4757 55.6436C59.8941 56.043 59.2284 56.3268 58.4785 56.495V56.7052C59.2984 56.7402 60.0658 56.9715 60.7805 57.399C61.5023 57.8264 62.0874 58.4256 62.5359 59.1964C62.9844 59.9602 63.2087 60.8712 63.2087 61.9294C63.2087 63.0716 62.9249 64.0912 62.3572 64.9882C61.7966 65.8781 60.9662 66.5824 59.866 67.1009C58.7659 67.6195 57.4099 67.8788 55.7981 67.8788H46.6007ZM51.1521 64.1578H54.8626C56.131 64.1578 57.056 63.916 57.6376 63.4325C58.2193 62.942 58.5101 62.2902 58.5101 61.4774C58.5101 60.8817 58.3664 60.3562 58.0791 59.9007C57.7918 59.4452 57.3819 59.0878 56.8493 58.8285C56.3237 58.5692 55.6965 58.4396 54.9678 58.4396H51.1521V64.1578ZM51.1521 55.3598H54.5263C55.1499 55.3598 55.7035 55.2511 56.1871 55.0339C56.6776 54.8097 57.063 54.4943 57.3433 54.0879C57.6306 53.6814 57.7743 53.1944 57.7743 52.6268C57.7743 51.849 57.4975 51.2218 56.9439 50.7453C56.3973 50.2687 55.6195 50.0305 54.6104 50.0305H51.1521V55.3598ZM66.0861 67.8788V51.7333H70.564V67.8788H66.0861ZM68.3356 49.6521C67.6699 49.6521 67.0987 49.4313 66.6222 48.9899C66.1527 48.5414 65.918 48.0053 65.918 47.3816C65.918 46.765 66.1527 46.2359 66.6222 45.7944C67.0987 45.3459 67.6699 45.1217 68.3356 45.1217C69.0013 45.1217 69.5689 45.3459 70.0384 45.7944C70.5149 46.2359 70.7532 46.765 70.7532 47.3816C70.7532 48.0053 70.5149 48.5414 70.0384 48.9899C69.5689 49.4313 69.0013 49.6521 68.3356 49.6521ZM82.7388 51.7333V55.097H73.0158V51.7333H82.7388ZM75.2232 47.8651H79.701V62.9174C79.701 63.3309 79.7641 63.6532 79.8902 63.8845C80.0163 64.1087 80.1915 64.2664 80.4158 64.3575C80.647 64.4486 80.9133 64.4941 81.2146 64.4941C81.4249 64.4941 81.6351 64.4766 81.8453 64.4416C82.0555 64.3995 82.2167 64.368 82.3288 64.347L83.0331 67.6791C82.8089 67.7491 82.4935 67.8297 82.0871 67.9208C81.6806 68.0189 81.1866 68.0785 80.605 68.0995C79.5258 68.1416 78.5798 67.9979 77.7669 67.6686C76.961 67.3392 76.3339 66.8277 75.8854 66.1339C75.4369 65.4402 75.2161 64.5642 75.2232 63.5061V47.8651ZM92.7771 68.1941C91.1233 68.1941 89.7008 67.8438 88.5095 67.143C87.3252 66.4352 86.4143 65.4542 85.7766 64.1998C85.1459 62.9455 84.8305 61.5019 84.8305 59.8691C84.8305 58.2153 85.1494 56.7648 85.7871 55.5174C86.4318 54.2631 87.3463 53.2855 88.5305 52.5848C89.7148 51.877 91.1233 51.5231 92.7561 51.5231C94.1646 51.5231 95.398 51.7789 96.4561 52.2904C97.5143 52.802 98.3517 53.5203 98.9683 54.4453C99.585 55.3703 99.9249 56.4564 99.9879 57.7038H95.7624C95.6432 56.8979 95.3279 56.2497 94.8163 55.7592C94.3118 55.2616 93.6496 55.0129 92.8297 55.0129C92.1359 55.0129 91.5298 55.2021 91.0112 55.5805C90.4997 55.9519 90.1002 56.495 89.8129 57.2098C89.5256 57.9245 89.382 58.79 89.382 59.8061C89.382 60.8362 89.5221 61.7121 89.8024 62.4339C90.0897 63.1557 90.4927 63.7058 91.0112 64.0842C91.5298 64.4626 92.1359 64.6518 92.8297 64.6518C93.3412 64.6518 93.8002 64.5467 94.2067 64.3365C94.6201 64.1262 94.96 63.8214 95.2263 63.422C95.4996 63.0155 95.6783 62.5285 95.7624 61.9609H99.9879C99.9179 63.1942 99.5815 64.2804 98.9788 65.2194C98.3832 66.1514 97.5598 66.8802 96.5087 67.4058C95.4575 67.9313 94.2137 68.1941 92.7771 68.1941ZM110.15 68.1941C108.517 68.1941 107.105 67.8473 105.914 67.1535C104.729 66.4527 103.815 65.4787 103.17 64.2313C102.526 62.977 102.203 61.5229 102.203 59.8691C102.203 58.2013 102.526 56.7437 103.17 55.4964C103.815 54.242 104.729 53.268 105.914 52.5742C107.105 51.8735 108.517 51.5231 110.15 51.5231C111.783 51.5231 113.191 51.8735 114.375 52.5742C115.567 53.268 116.485 54.242 117.129 55.4964C117.774 56.7437 118.096 58.2013 118.096 59.8691C118.096 61.5229 117.774 62.977 117.129 64.2313C116.485 65.4787 115.567 66.4527 114.375 67.1535C113.191 67.8473 111.783 68.1941 110.15 68.1941ZM110.171 64.7254C110.914 64.7254 111.534 64.5152 112.031 64.0947C112.529 63.6672 112.904 63.0856 113.156 62.3498C113.415 61.614 113.545 60.7766 113.545 59.8376C113.545 58.8986 113.415 58.0612 113.156 57.3254C112.904 56.5896 112.529 56.008 112.031 55.5805C111.534 55.153 110.914 54.9393 110.171 54.9393C109.421 54.9393 108.79 55.153 108.279 55.5805C107.774 56.008 107.392 56.5896 107.133 57.3254C106.881 58.0612 106.755 58.8986 106.755 59.8376C106.755 60.7766 106.881 61.614 107.133 62.3498C107.392 63.0856 107.774 63.6672 108.279 64.0947C108.79 64.5152 109.421 64.7254 110.171 64.7254ZM121.008 67.8788V51.7333H125.486V67.8788H121.008ZM123.257 49.6521C122.592 49.6521 122.021 49.4313 121.544 48.9899C121.075 48.5414 120.84 48.0053 120.84 47.3816C120.84 46.765 121.075 46.2359 121.544 45.7944C122.021 45.3459 122.592 45.1217 123.257 45.1217C123.923 45.1217 124.491 45.3459 124.96 45.7944C125.437 46.2359 125.675 46.765 125.675 47.3816C125.675 48.0053 125.437 48.5414 124.96 48.9899C124.491 49.4313 123.923 49.6521 123.257 49.6521ZM133.551 58.5447V67.8788H129.073V51.7333H133.34V54.5819H133.53C133.887 53.6429 134.486 52.9001 135.327 52.3535C136.168 51.7999 137.188 51.5231 138.386 51.5231C139.507 51.5231 140.485 51.7684 141.319 52.2589C142.153 52.7494 142.801 53.4502 143.263 54.3612C143.726 55.2652 143.957 56.3443 143.957 57.5987V67.8788H139.479V58.3975C139.486 57.4095 139.234 56.6386 138.722 56.085C138.211 55.5244 137.506 55.2441 136.61 55.2441C136.007 55.2441 135.474 55.3738 135.012 55.633C134.556 55.8923 134.199 56.2707 133.94 56.7683C133.687 57.2588 133.558 57.8509 133.551 58.5447Z" fill="#2563EB"/>
<g clip-path="url(#clip0_1203_1087)">
<path d="M61.4603 7.7497H77.2469C84.4227 7.7497 84.4227 17.7958 77.2469 17.7958H68.636" stroke="#2563EB" stroke-width="5.74061" stroke-linecap="round" stroke-linejoin="round"/>
<path d="M68.636 17.796H77.2469C84.4227 17.796 84.4227 27.842 77.2469 27.842H61.4603" stroke="#2563EB" stroke-width="5.74061" stroke-linecap="round" stroke-linejoin="round"/>
<path d="M67.201 32.1474V3.44439" stroke="#2563EB" stroke-width="5.74061" stroke-linecap="round" stroke-linejoin="round"/>
<path d="M75.8118 7.74984V3.44439" stroke="#2563EB" stroke-width="5.74061" stroke-linecap="round" stroke-linejoin="round"/>
<path d="M75.8118 32.1474V27.8419" stroke="#2563EB" stroke-width="5.74061" stroke-linecap="round" stroke-linejoin="round"/>
</g>
<defs>
<clipPath id="clip0_1203_1087">
<rect width="31.3939" height="35.8788" fill="white" transform="translate(58.303)"/>
</clipPath>
</defs>
</svg>
