<svg width="64" height="16" viewBox="0 0 64 16" fill="none" xmlns="http://www.w3.org/2000/svg">
<path d="M15.0716 4.72727H16.9679L18.9707 9.61364H19.0559L21.0588 4.72727H22.9551V12H21.4636V7.26634H21.4032L19.5211 11.9645H18.5055L16.6234 7.24858H16.563V12H15.0716V4.72727ZM25.1275 14.0455C24.9357 14.0455 24.7558 14.0301 24.5877 13.9993C24.422 13.9709 24.2847 13.9342 24.1758 13.8892L24.5167 12.7599C24.6942 12.8144 24.854 12.844 24.9961 12.8487C25.1405 12.8535 25.2648 12.8203 25.369 12.7493C25.4755 12.6783 25.5619 12.5575 25.6282 12.3871L25.717 12.1562L23.7603 6.54545H25.3512L26.4805 10.5511H26.5373L27.6772 6.54545H29.2788L27.1587 12.5895C27.0569 12.883 26.9184 13.1387 26.7433 13.3565C26.5704 13.5767 26.3514 13.746 26.0863 13.8643C25.8211 13.9851 25.5015 14.0455 25.1275 14.0455ZM30.0813 12V4.72727H32.9933C33.5283 4.72727 33.9746 4.80658 34.332 4.9652C34.6895 5.12382 34.9582 5.34399 35.1381 5.62571C35.3181 5.90507 35.408 6.22704 35.408 6.59162C35.408 6.87571 35.3512 7.12547 35.2376 7.34091C35.1239 7.55398 34.9677 7.72917 34.7688 7.86648C34.5723 8.00142 34.3474 8.0973 34.0941 8.15412V8.22514C34.3711 8.23698 34.6303 8.3151 34.8718 8.45952C35.1156 8.60393 35.3133 8.80634 35.4648 9.06676C35.6164 9.32481 35.6921 9.63258 35.6921 9.99006C35.6921 10.3759 35.5962 10.7204 35.4045 11.0234C35.2151 11.3241 34.9345 11.562 34.5629 11.7372C34.1912 11.9124 33.7331 12 33.1886 12H30.0813ZM31.619 10.7429H32.8725C33.301 10.7429 33.6135 10.6612 33.81 10.4979C34.0065 10.3321 34.1048 10.112 34.1048 9.83736C34.1048 9.63613 34.0562 9.45857 33.9592 9.30469C33.8621 9.1508 33.7236 9.03007 33.5437 8.94247C33.3661 8.85488 33.1542 8.81108 32.908 8.81108H31.619V10.7429ZM31.619 7.7706H32.7589C32.9696 7.7706 33.1566 7.7339 33.32 7.66051C33.4857 7.58475 33.6159 7.47822 33.7106 7.34091C33.8076 7.2036 33.8562 7.03906 33.8562 6.8473C33.8562 6.58452 33.7627 6.37263 33.5756 6.21165C33.391 6.05066 33.1282 5.97017 32.7873 5.97017H31.619V7.7706ZM36.6642 12V6.54545H38.177V12H36.6642ZM37.4242 5.84233C37.1993 5.84233 37.0063 5.76776 36.8453 5.61861C36.6867 5.46709 36.6074 5.28598 36.6074 5.07528C36.6074 4.86695 36.6867 4.68821 36.8453 4.53906C37.0063 4.38755 37.1993 4.31179 37.4242 4.31179C37.6491 4.31179 37.8408 4.38755 37.9995 4.53906C38.1605 4.68821 38.2409 4.86695 38.2409 5.07528C38.2409 5.28598 38.1605 5.46709 37.9995 5.61861C37.8408 5.76776 37.6491 5.84233 37.4242 5.84233ZM42.2901 6.54545V7.68182H39.0053V6.54545H42.2901ZM39.7511 5.23864H41.2638V10.3239C41.2638 10.4635 41.2852 10.5724 41.3278 10.6506C41.3704 10.7263 41.4296 10.7796 41.5053 10.8104C41.5835 10.8411 41.6734 10.8565 41.7752 10.8565C41.8462 10.8565 41.9173 10.8506 41.9883 10.8388C42.0593 10.8246 42.1138 10.8139 42.1516 10.8068L42.3896 11.9325C42.3138 11.9562 42.2073 11.9834 42.07 12.0142C41.9326 12.0473 41.7657 12.0675 41.5692 12.0746C41.2047 12.0888 40.8851 12.0402 40.6104 11.929C40.3382 11.8177 40.1263 11.6449 39.9748 11.4105C39.8233 11.1761 39.7487 10.8802 39.7511 10.5227V5.23864ZM45.6815 12.1065C45.1228 12.1065 44.6422 11.9882 44.2397 11.7514C43.8396 11.5123 43.5318 11.1809 43.3164 10.7571C43.1033 10.3333 42.9968 9.84564 42.9968 9.29403C42.9968 8.73532 43.1045 8.24527 43.32 7.82386C43.5378 7.40009 43.8467 7.06984 44.2468 6.8331C44.6469 6.59399 45.1228 6.47443 45.6744 6.47443C46.1502 6.47443 46.5669 6.56084 46.9244 6.73366C47.2818 6.90649 47.5647 7.14915 47.7731 7.46165C47.9814 7.77415 48.0962 8.1411 48.1175 8.5625H46.69C46.6497 8.29025 46.5432 8.07126 46.3704 7.90554C46.1999 7.73745 45.9762 7.65341 45.6992 7.65341C45.4648 7.65341 45.2601 7.71733 45.0849 7.84517C44.9121 7.97064 44.7771 8.15412 44.68 8.3956C44.583 8.63707 44.5344 8.92945 44.5344 9.27273C44.5344 9.62074 44.5818 9.91667 44.6765 10.1605C44.7736 10.4044 44.9097 10.5902 45.0849 10.718C45.2601 10.8459 45.4648 10.9098 45.6992 10.9098C45.872 10.9098 46.0271 10.8743 46.1644 10.8033C46.3041 10.7322 46.4189 10.6293 46.5089 10.4943C46.6012 10.357 46.6616 10.1925 46.69 10.0007H48.1175C48.0939 10.4174 47.9802 10.7843 47.7766 11.1016C47.5754 11.4164 47.2972 11.6626 46.9421 11.8402C46.587 12.0178 46.1668 12.1065 45.6815 12.1065ZM51.5506 12.1065C50.999 12.1065 50.522 11.9893 50.1195 11.755C49.7194 11.5182 49.4105 11.1892 49.1926 10.7678C48.9748 10.344 48.8659 9.85275 48.8659 9.29403C48.8659 8.73059 48.9748 8.23816 49.1926 7.81676C49.4105 7.39299 49.7194 7.06392 50.1195 6.82955C50.522 6.5928 50.999 6.47443 51.5506 6.47443C52.1022 6.47443 52.5781 6.5928 52.9782 6.82955C53.3806 7.06392 53.6908 7.39299 53.9086 7.81676C54.1264 8.23816 54.2353 8.73059 54.2353 9.29403C54.2353 9.85275 54.1264 10.344 53.9086 10.7678C53.6908 11.1892 53.3806 11.5182 52.9782 11.755C52.5781 11.9893 52.1022 12.1065 51.5506 12.1065ZM51.5577 10.9347C51.8087 10.9347 52.0182 10.8636 52.1863 10.7216C52.3543 10.5772 52.481 10.3807 52.5662 10.1321C52.6538 9.88352 52.6976 9.60062 52.6976 9.28338C52.6976 8.96615 52.6538 8.68324 52.5662 8.43466C52.481 8.18608 52.3543 7.98958 52.1863 7.84517C52.0182 7.70076 51.8087 7.62855 51.5577 7.62855C51.3044 7.62855 51.0913 7.70076 50.9185 7.84517C50.748 7.98958 50.619 8.18608 50.5314 8.43466C50.4462 8.68324 50.4036 8.96615 50.4036 9.28338C50.4036 9.60062 50.4462 9.88352 50.5314 10.1321C50.619 10.3807 50.748 10.5772 50.9185 10.7216C51.0913 10.8636 51.3044 10.9347 51.5577 10.9347ZM55.2189 12V6.54545H56.7317V12H55.2189ZM55.9789 5.84233C55.754 5.84233 55.561 5.76776 55.4 5.61861C55.2414 5.46709 55.1621 5.28598 55.1621 5.07528C55.1621 4.86695 55.2414 4.68821 55.4 4.53906C55.561 4.38755 55.754 4.31179 55.9789 4.31179C56.2038 4.31179 56.3955 4.38755 56.5542 4.53906C56.7151 4.68821 56.7956 4.86695 56.7956 5.07528C56.7956 5.28598 56.7151 5.46709 56.5542 5.61861C56.3955 5.76776 56.2038 5.84233 55.9789 5.84233ZM59.4563 8.84659V12H57.9435V6.54545H59.3853V7.50781H59.4492C59.57 7.19058 59.7724 6.93963 60.0565 6.75497C60.3406 6.56795 60.685 6.47443 61.0898 6.47443C61.4686 6.47443 61.7989 6.55729 62.0806 6.72301C62.3623 6.88873 62.5813 7.12547 62.7376 7.43324C62.8938 7.73864 62.9719 8.10322 62.9719 8.52699V12H61.4592V8.79688C61.4615 8.46307 61.3763 8.20265 61.2035 8.01562C61.0307 7.82623 60.7927 7.73153 60.4897 7.73153C60.2861 7.73153 60.1062 7.77533 59.9499 7.86293C59.796 7.95052 59.6753 8.07836 59.5877 8.24645C59.5025 8.41217 59.4587 8.61222 59.4563 8.84659Z" fill="#2563eb"/>
<g clip-path="url(#clip0_1203_1095)">
<path d="M1.04211 4.55787H6.25264C8.62106 4.55787 8.62106 7.87366 6.25264 7.87366H3.41054" stroke="#2563eb" stroke-width="1.89474" stroke-linecap="round" stroke-linejoin="round"/>
<path d="M3.41054 7.87371H6.25264C8.62106 7.87371 8.62106 11.1895 6.25264 11.1895H1.04211" stroke="#2563eb" stroke-width="1.89474" stroke-linecap="round" stroke-linejoin="round"/>
<path d="M2.93683 12.6105V3.13683" stroke="#2563eb" stroke-width="1.89474" stroke-linecap="round" stroke-linejoin="round"/>
<path d="M5.77893 4.55789V3.13683" stroke="#2563eb" stroke-width="1.89474" stroke-linecap="round" stroke-linejoin="round"/>
<path d="M5.77893 12.6105V11.1895" stroke="#2563eb" stroke-width="1.89474" stroke-linecap="round" stroke-linejoin="round"/>
</g>
<defs>
<clipPath id="clip0_1203_1095">
<rect width="9" height="11.8421" fill="white" transform="translate(0 2)"/>
</clipPath>
</defs>
</svg>
